<?xml version="1.0" encoding="UTF-8" standalone="no"?>
<svg
   xmlns:dc="http://purl.org/dc/elements/1.1/"
   xmlns:cc="http://creativecommons.org/ns#"
   xmlns:rdf="http://www.w3.org/1999/02/22-rdf-syntax-ns#"
   xmlns:svg="http://www.w3.org/2000/svg"
   xmlns="http://www.w3.org/2000/svg"
   xmlns:sodipodi="http://sodipodi.sourceforge.net/DTD/sodipodi-0.dtd"
   xmlns:inkscape="http://www.inkscape.org/namespaces/inkscape"
   sodipodi:docname="fleurdelis.svg"
   inkscape:version="1.0beta1 (32d4812, 2019-09-19)"
   id="svg8"
   version="1.1"
   viewBox="0 0 104.80864 95.500425"
   height="95.500427mm"
   width="104.80864mm">
  <defs
     id="defs2" />
  <sodipodi:namedview
     inkscape:window-maximized="0"
     inkscape:window-y="25"
     inkscape:window-x="0"
     inkscape:window-height="799"
     inkscape:window-width="1440"
     fit-margin-bottom="0"
     fit-margin-right="0"
     fit-margin-left="0"
     fit-margin-top="0"
     showgrid="false"
     inkscape:document-rotation="0"
     inkscape:current-layer="layer1"
     inkscape:document-units="mm"
     inkscape:cy="86.719606"
     inkscape:cx="125.00977"
     inkscape:zoom="0.81572619"
     inkscape:pageshadow="2"
     inkscape:pageopacity="0.0"
     borderopacity="1.0"
     bordercolor="#666666"
     pagecolor="#ffffff"
     id="base" />
  <metadata
     id="metadata5">
    <rdf:RDF>
      <cc:Work
         rdf:about="">
        <dc:format>image/svg+xml</dc:format>
        <dc:type
           rdf:resource="http://purl.org/dc/dcmitype/StillImage" />
        <dc:title></dc:title>
      </cc:Work>
    </rdf:RDF>
  </metadata>
  <g
     transform="translate(-18.080097,-12.831224)"
     id="layer1"
     inkscape:groupmode="layer"
     inkscape:label="Layer 1">
    <path
       inkscape:connector-curvature="0"
       id="path847"
       d="m 69.507105,107.90961 c -1.138843,-0.5211 -1.56738,-0.73854 -2.419079,-1.22746 -3.910287,-2.24469 -7.539177,-5.72159 -9.662744,-9.258044 -0.455435,-0.758456 -0.719915,-1.270263 -1.263969,-2.445975 l -0.372355,-0.80467 0.573082,-0.792991 c 1.138757,-1.575733 1.721533,-2.525553 2.462653,-4.013675 0.974231,-1.956191 1.679626,-3.949324 2.113641,-5.972211 l 0.02448,-0.114119 h 2.711254 2.711253 l -0.02513,0.139479 c -0.683309,3.791161 -1.954661,7.204365 -3.866778,10.38117 l -0.516792,0.85861 0.259678,0.409381 c 1.713148,2.700774 4.959846,5.656995 7.937572,7.227415 l 0.311726,0.1644 0.601223,-0.33999 c 2.994697,-1.6935 5.961482,-4.439644 7.618434,-7.051825 l 0.259678,-0.409381 -0.500016,-0.833247 C 76.64666,90.796505 75.293193,87.285299 74.705832,84.074548 74.648902,83.763335 74.590943,83.457349 74.57704,83.394584 l -0.02528,-0.114119 h 2.713488 2.713487 l 0.02448,0.114119 c 0.280154,1.305751 0.812946,3.021322 1.327069,4.273107 0.407449,0.992065 1.328051,2.795733 1.898234,3.719067 0.264014,0.427537 0.804435,1.229967 1.200943,1.783193 l 0.720916,1.005852 -0.345709,0.752781 c -0.512326,1.115587 -0.834856,1.740312 -1.288374,2.495522 -2.348769,3.911234 -6.541179,7.736864 -10.85606,9.906294 -0.556549,0.27983 -2.165638,1.00816 -2.211925,1.0012 -0.01554,-0.002 -0.439077,-0.19223 -0.941199,-0.42199 z M 40.165933,76.052951 v -2.561329 h 30.30484 30.304847 v 2.561329 2.56133 H 70.470773 40.165933 Z M 50.464575,68.483082 C 49.652807,63.339195 47.514265,58.123794 44.67516,54.364053 43.32098,52.570755 41.586362,50.917364 40.05523,49.960461 39.370828,49.532734 38.402272,49.05498 37.706043,48.801689 c -3.35079,-1.219031 -7.077138,-0.710893 -9.855711,1.343959 -3.237473,2.394224 -4.97192,6.657296 -4.339554,10.666125 0.0462,0.292904 0.08654,0.576286 0.08964,0.629737 0.0051,0.08761 -0.23911,0.151047 -2.479618,0.644148 -1.366887,0.30083 -2.534129,0.548101 -2.59387,0.549489 -0.09864,0.0023 -0.118371,-0.04991 -0.214724,-0.568069 -0.202045,-1.086539 -0.233894,-1.49902 -0.232035,-3.005124 0.002,-1.576544 0.05317,-2.131492 0.308704,-3.344053 0.499478,-2.370174 1.538437,-4.65261 2.995033,-6.579633 2.356569,-3.117653 5.709313,-5.253275 9.423557,-6.00259 1.194291,-0.240937 1.796084,-0.297669 3.170703,-0.298904 1.308161,-0.0012 1.796841,0.03738 2.891005,0.228123 5.890011,1.026771 11.031859,5.346651 14.837559,12.465652 2.105787,3.939119 3.64693,8.791336 4.154208,13.079331 l 0.0315,0.266277 h -2.682916 -2.682916 z m 10.727286,0.329675 c -0.01069,-0.03486 -0.07989,-0.43999 -0.153768,-0.900269 -0.318925,-1.986861 -0.920873,-4.195827 -1.77602,-6.517442 -0.643105,-1.745948 -1.336188,-3.385738 -2.915481,-6.897838 -1.635327,-3.636711 -2.312848,-5.291858 -2.968904,-7.252873 -1.116238,-3.336539 -1.551706,-5.904948 -1.47909,-8.723736 0.06022,-2.337576 0.48542,-4.46157 1.34534,-6.720321 1.661197,-4.363458 4.545539,-8.091039 8.705976,-11.25117 3.115778,-2.366641 5.143848,-4.161862 7.214865,-6.3865 0.681694,-0.732261 1.269389,-1.331384 1.305994,-1.331384 0.0366,0 0.6243,0.599123 1.305994,1.331384 2.098013,2.253639 4.07437,3.998032 7.367023,6.502358 4.477219,3.405286 7.653846,7.840055 9.07552,12.669983 0.628211,2.134255 0.877132,3.998479 0.82448,6.174678 -0.0629,2.599662 -0.51115,4.909039 -1.538832,7.92795 -0.628088,1.84508 -1.295946,3.462043 -3.01011,7.287868 -1.596504,3.563216 -2.167888,4.917128 -2.814724,6.669601 -0.851553,2.307124 -1.41433,4.368025 -1.772804,6.492083 l -0.162637,0.963668 -2.678182,0.01313 -2.678177,0.01313 0.03442,-0.317448 c 0.192779,-1.777329 0.68559,-4.114235 1.299243,-6.161023 0.820239,-2.735828 1.71353,-4.986871 4.027537,-10.149176 1.220526,-2.722864 1.848062,-4.204268 2.331667,-5.504309 1.307596,-3.515108 1.826902,-6.408086 1.599263,-8.909217 C 83.315131,33.821978 81.362489,29.979832 78.047465,26.752052 77.22826,25.95441 76.781909,25.577479 75.390549,24.508371 73.979455,23.4241 72.738843,22.413675 71.639759,21.453514 71.144814,21.021132 70.676597,20.615389 70.599271,20.551864 l -0.140584,-0.1155 -0.33697,0.305372 c -1.14566,1.038246 -3.140857,2.679883 -4.748248,3.906834 -1.209877,0.923522 -1.677089,1.321438 -2.5291,2.15399 -3.280602,3.205679 -5.219602,7.037399 -5.58329,11.03332 -0.242235,2.661491 0.374367,5.81714 1.887928,9.662044 0.505103,1.283114 0.968863,2.359957 2.140625,4.970501 2.637614,5.876282 3.613284,8.470816 4.443996,11.817619 0.361313,1.455677 0.806387,3.918916 0.806387,4.462912 v 0.127194 h -2.66436 c -2.087309,0 -2.668571,-0.01373 -2.683799,-0.0634 z M 85.080607,68.60988 c 0.479197,-4.050633 1.850512,-8.517584 3.803077,-12.388212 1.676793,-3.32397 3.873374,-6.367566 6.038143,-8.366503 3.189814,-2.945447 6.326443,-4.463306 10.241013,-4.955751 0.76941,-0.09679 2.94762,-0.08164 3.72788,0.02593 3.34857,0.461639 6.14557,1.748737 8.63254,3.972453 2.01007,1.797287 3.72705,4.461542 4.57058,7.092221 0.54945,1.71354 0.79589,3.297359 0.79489,5.108537 -7.9e-4,1.519205 -0.25692,3.538885 -0.44875,3.539301 -0.12134,2.53e-4 -5.04731,-1.075306 -5.0888,-1.111123 -0.0193,-0.01663 0.009,-0.281305 0.0627,-0.588157 0.41966,-2.394379 -0.0814,-5.179721 -1.32744,-7.379673 -1.54571,-2.728971 -4.08042,-4.606553 -7.01825,-5.198778 -3.43271,-0.691985 -6.81995,0.280802 -9.83956,2.825839 -0.533758,0.449873 -1.633783,1.554297 -2.160256,2.168904 -3.083732,3.599964 -5.641876,9.36234 -6.513113,14.671175 -0.06955,0.423791 -0.126449,0.788433 -0.126449,0.810324 0,0.02188 -1.210444,0.03979 -2.689873,0.03979 h -2.689878 z"
       style="fill:#000000;stroke-width:0.0507194" />
  </g>
</svg>
